<?xml version="1.0" encoding="UTF-8"?>
<svg version="1.1" xmlns="http://www.w3.org/2000/svg" width="500" height="500">
<path d="M0 0 C165 0 330 0 500 0 C500 165 500 330 500 500 C335 500 170 500 0 500 C0 335 0 170 0 0 Z " fill="#FEFEFE" transform="translate(0,0)"/>
<path d="M0 0 C1.98 0 3.96 0 6 0 C6.33 0.66 6.66 1.32 7 2 C10.29075996 1.62095792 10.29075996 1.62095792 13 0 C14.99958364 -0.04080783 17.00045254 -0.04254356 19 0 C19 0.66 19 1.32 19 2 C20.65 2 22.3 2 24 2 C24.33 1.34 24.66 0.68 25 0 C26.65 0 28.3 0 30 0 C30.33 0.66 30.66 1.32 31 2 C33.52733235 2.65555119 33.52733235 2.65555119 36 3 C36 2.01 36 1.02 36 0 C37.98 0 39.96 0 42 0 C42 19.47 42 38.94 42 59 C40.02 59 38.04 59 36 59 C35.67 58.01 35.34 57.02 35 56 C32.98491642 55.26676204 32.98491642 55.26676204 31 55 C30.67 56.32 30.34 57.64 30 59 C28.35 59 26.7 59 25 59 C24.67 58.01 24.34 57.02 24 56 C22.68 56 21.36 56 20 56 C19.67 56.99 19.34 57.98 19 59 C16.125 59.1875 16.125 59.1875 13 59 C12.34 58.01 11.68 57.02 11 56 C9.68 56 8.36 56 7 56 C6.67 56.99 6.34 57.98 6 59 C4.02 59 2.04 59 0 59 C0 39.53 0 20.06 0 0 Z " fill="#E64437" transform="translate(113,96)"/>
<path d="M0 0 C4.1488729 1.97006229 7.11142828 4.22870243 9.1875 8.3671875 C10.97649642 14.16422398 10.98956667 19.98421605 8.3125 25.4375 C4.68511715 29.45703235 1.51083198 32.59207476 -4.05078125 33.23828125 C-9.57364901 33.41951525 -12.70071475 32.79936836 -17 29 C-21.44118559 23.11842989 -22.88469766 18.26448924 -22 11 C-17.10974985 1.2194997 -10.64494876 -1.97851142 0 0 Z " fill="#E84C40" transform="translate(140,109)"/>
<path d="M0 0 C2.0290053 3.66781728 2.14260491 5.79666073 1.625 9.9375 C0.55059647 13.4912963 -1.03702007 16.068161 -3.375 18.9375 C-2.694375 20.01 -2.01375 21.0825 -1.3125 22.1875 C0.625 25.60742883 0.625 25.60742883 0.625 28.1875 C-0.70465686 30.51439951 -2.04102603 31.63322043 -4.375 32.9375 C-7.375 31.9375 -7.375 31.9375 -8.54296875 30.16015625 C-8.87941406 29.44730469 -9.21585937 28.73445313 -9.5625 28 C-9.90667969 27.28972656 -10.25085938 26.57945312 -10.60546875 25.84765625 C-11.375 23.9375 -11.375 23.9375 -11.375 21.9375 C-12.695 21.9375 -14.015 21.9375 -15.375 21.9375 C-15.375 25.5675 -15.375 29.1975 -15.375 32.9375 C-18.015 32.9375 -20.655 32.9375 -23.375 32.9375 C-23.68400266 21.45290109 -22.74883463 10.33296762 -21.375 -1.0625 C-14.46129347 -2.92232749 -6.22907112 -3.80665457 0 0 Z " fill="#E74538" transform="translate(309.375,112.0625)"/>
<path d="M0 0 C2.26725253 3.75269384 2.73995967 6.77400987 1.8125 11 C0.83203125 12.859375 0.83203125 12.859375 -0.3125 14.625 C-2.58249563 17.82943828 -2.58249563 17.82943828 -1.5 21.0625 C-1.066875 22.031875 -0.63375 23.00125 -0.1875 24 C0.18170191 25.99369031 0.52575582 27.99279077 0.8125 30 C-3.9375 33 -3.9375 33 -6.1875 33 C-7.02598804 31.54462432 -7.85813934 30.08559627 -8.6875 28.625 C-9.1515625 27.81289062 -9.615625 27.00078125 -10.09375 26.1640625 C-11.1875 24 -11.1875 24 -11.1875 22 C-12.5075 22 -13.8275 22 -15.1875 22 C-15.1875 25.63 -15.1875 29.26 -15.1875 33 C-17.8275 33 -20.4675 33 -23.1875 33 C-22.68695871 21.65171498 -22.1744401 10.3183131 -21.1875 -1 C-5.91964286 -3.71428571 -5.91964286 -3.71428571 0 0 Z " fill="#E64336" transform="translate(190.1875,112)"/>
<path d="M0 0 C4.1488729 1.97006229 7.11142828 4.22870243 9.1875 8.3671875 C10.97649642 14.16422398 10.98956667 19.98421605 8.3125 25.4375 C4.68511715 29.45703235 1.51083198 32.59207476 -4.05078125 33.23828125 C-9.57364901 33.41951525 -12.70071475 32.79936836 -17 29 C-21.44118559 23.11842989 -22.88469766 18.26448924 -22 11 C-17.10974985 1.2194997 -10.64494876 -1.97851142 0 0 Z M-17.8125 9.3125 C-19.82579715 13.86890934 -19.54420199 17.48832781 -17.875 22.125 C-15.59651487 25.6186772 -13.49751697 27.71316198 -10 30 C-4.79338975 30.74380146 -1.3989234 29.83486175 3 27 C5.76118585 24.67479087 6.83466359 23.01210609 7.41796875 19.44140625 C7.64872693 14.84495274 7.70010265 11.14567856 4.75 7.4375 C0.28082489 3.4761857 -2.92868133 2.53857589 -8.81640625 2.68359375 C-13.18548532 3.31668034 -15.21793582 6.00219397 -17.8125 9.3125 Z " fill="#FCEBEA" transform="translate(140,109)"/>
<path d="M0 0 C4.74559401 -0.37964752 8.06988525 -0.48228172 12.375 1.75 C14.69874713 3.74178325 16.46799577 5.36154827 18 8 C18 8.99 18 9.98 18 11 C17.34 11 16.68 11 16 11 C15.67 12.65 15.34 14.3 15 16 C13.25 16.6875 13.25 16.6875 11 17 C9.65210653 16.01971384 8.31787285 15.02028865 7 14 C6.01 14.33 5.02 14.66 4 15 C4 14.01 4 13.02 4 12 C4.66 12 5.32 12 6 12 C6 11.34 6 10.68 6 10 C4.68 9.34 3.36 8.68 2 8 C2.875 3.125 2.875 3.125 4 2 C2.35 2 0.7 2 -1 2 C-0.67 1.34 -0.34 0.68 0 0 Z " fill="#E9584C" transform="translate(129,112)"/>
<path d="M0 0 C0.66 0 1.32 0 2 0 C2.66964286 7.76785714 2.66964286 7.76785714 -0.0625 11.4375 C-3.48093854 14.41954213 -5.53070868 14.82473367 -10 15 C-9.649375 14.4225 -9.29875 13.845 -8.9375 13.25 C-7.81934012 10.56641628 -8.07396879 9.69390896 -9 7 C-9.33333333 5.66666667 -9.66666667 4.33333333 -10 3 C-9.34 2.67 -8.68 2.34 -8 2 C-8 2.66 -8 3.32 -8 4 C-5.03 4.495 -5.03 4.495 -2 5 C-1.34 3.35 -0.68 1.7 0 0 Z " fill="#E7463A" transform="translate(145,123)"/>
<path d="M0 0 C-1.32 0.99 -2.64 1.98 -4 3 C-3.65555119 5.47266765 -3.65555119 5.47266765 -3 8 C-2.34 8.33 -1.68 8.66 -1 9 C-1 9.66 -1 10.32 -1 11 C-1.99 11 -2.98 11 -4 11 C-4.33 11.99 -4.66 12.98 -5 14 C-5.66 12.68 -6.32 11.36 -7 10 C-10.60992379 10.65585189 -10.60992379 10.65585189 -14 12 C-14.34907695 8.24742282 -14.27011863 6.43411922 -12.25 3.1875 C-8.43003523 -0.52635464 -5.17850805 -0.11769336 0 0 Z " fill="#E74639" transform="translate(136,113)"/>
<path d="M0 0 C0 0.33 0 0.66 0 1 C-0.59167969 1.15855469 -1.18335938 1.31710938 -1.79296875 1.48046875 C-7.09525186 3.04606947 -10.38991362 4.60020722 -14 9 C-15.28446919 11.56893838 -15.32977144 13.76576337 -15.5625 16.625 C-15.68818359 18.12933594 -15.68818359 18.12933594 -15.81640625 19.6640625 C-15.87699219 20.43492187 -15.93757813 21.20578125 -16 22 C-16.66 22 -17.32 22 -18 22 C-19.35577132 17.93268603 -19.53161588 14.25292704 -19 10 C-17.25 6.6875 -17.25 6.6875 -15 4 C-14.484375 3.21625 -13.96875 2.4325 -13.4375 1.625 C-9.36214507 -1.09190329 -4.75405459 -0.29507925 0 0 Z " fill="#FBE6E5" transform="translate(137,110)"/>
<path d="M0 0 C0.66 0.99 1.32 1.98 2 3 C2.86625 3.99 3.7325 4.98 4.625 6 C7 9 7 9 7 12 C10.3 12.33 13.6 12.66 17 13 C17 13.33 17 13.66 17 14 C12.25440599 14.37964752 8.93011475 14.48228172 4.625 12.25 C0.25 8.5 0.25 8.5 -1 6 C-0.6875 2.75 -0.6875 2.75 0 0 Z " fill="#F9D8D6" transform="translate(121,128)"/>
<path d="M0 0 C1.134375 0.020625 2.26875 0.04125 3.4375 0.0625 C3.125 2.4375 3.125 2.4375 2.4375 5.0625 C-0.5625 7.0625 -0.5625 7.0625 -4.5625 7.0625 C-4.60504356 5.06295254 -4.60330783 3.06208364 -4.5625 1.0625 C-3.5625 0.0625 -3.5625 0.0625 0 0 Z " fill="#FCEDEB" transform="translate(180.5625,117.9375)"/>
<path d="M0 0 C2.31 0 4.62 0 7 0 C6.25 4.75 6.25 4.75 4 7 C2.68 7 1.36 7 0 7 C0 4.69 0 2.38 0 0 Z " fill="#FDF6F5" transform="translate(295,118)"/>
<path d="M0 0 C10.97592998 -0.63019694 10.97592998 -0.63019694 15.25 2 C15.8275 2.66 16.405 3.32 17 4 C16.67 4.99 16.34 5.98 16 7 C15.13375 6.525625 14.2675 6.05125 13.375 5.5625 C10.13342174 3.87633408 10.13342174 3.87633408 6.875 3.5 C3.72299984 2.95182606 2.4439487 1.97194144 0 0 Z " fill="#FADCDA" transform="translate(128,109)"/>
<path d="M0 0 C0.625 1.875 0.625 1.875 1 4 C0.34 4.66 -0.32 5.32 -1 6 C-3.125 5.625 -3.125 5.625 -5 5 C-5.33 3.35 -5.66 1.7 -6 0 C-3.50907189 -1.24546405 -2.58919267 -0.7767578 0 0 Z " fill="#FAE0DE" transform="translate(137,130)"/>
<path d="M0 0 C0.625 1.875 0.625 1.875 1 4 C0.34 4.66 -0.32 5.32 -1 6 C-3.125 5.625 -3.125 5.625 -5 5 C-5.33 3.35 -5.66 1.7 -6 0 C-3.50907189 -1.24546405 -2.58919267 -0.7767578 0 0 Z " fill="#FAE0DE" transform="translate(144,123)"/>
<path d="M0 0 C1.65 0.33 3.3 0.66 5 1 C5 2.65 5 4.3 5 6 C3.125 6.625 3.125 6.625 1 7 C0.34 6.34 -0.32 5.68 -1 5 C-0.625 2.375 -0.625 2.375 0 0 Z " fill="#FBE7E6" transform="translate(125,122)"/>
<path d="M0 0 C1.67542976 0.28604898 3.34385343 0.61781233 5 1 C5 2.65 5 4.3 5 6 C3.35 6 1.7 6 0 6 C-0.38218767 4.34385343 -0.71395102 2.67542976 -1 1 C-0.67 0.67 -0.34 0.34 0 0 Z " fill="#FBE8E7" transform="translate(132,115)"/>
<path d="M0 0 C0.33 0 0.66 0 1 0 C1.33 1.65 1.66 3.3 2 5 C2.33 5 2.66 5 3 5 C2.67 7.31 2.34 9.62 2 12 C1.34 11.67 0.68 11.34 0 11 C0 7.37 0 3.74 0 0 Z " fill="#FADDDC" transform="translate(147,121)"/>
<path d="M0 0 C0.33 0 0.66 0 1 0 C1.33 2.97 1.66 5.94 2 9 C1.34 9 0.68 9 0 9 C-0.87890625 2.84765625 -0.87890625 2.84765625 -1 1 C-0.67 0.67 -0.34 0.34 0 0 Z " fill="#FEF9F9" transform="translate(119,123)"/>
<path d="M0 0 C2.1640625 -0.29296875 2.1640625 -0.29296875 4.625 -0.1875 C5.44226563 -0.16042969 6.25953125 -0.13335937 7.1015625 -0.10546875 C8.04128906 -0.05326172 8.04128906 -0.05326172 9 0 C9 0.33 9 0.66 9 1 C5.37 1.66 1.74 2.32 -2 3 C-1.34 2.01 -0.68 1.02 0 0 Z " fill="#FEFAFA" transform="translate(128,110)"/>
</svg>
